HIERARCHY
ROOT Hips
{
	OFFSET	0.000000	0.000000	0.000000
	CHANNELS 6 Xposition Yposition Zposition Zrotation Xrotation Yrotation
	JOINT LeftHip
	{
		OFFSET	4.740440	-3.195970	-0.322709
		CHANNELS 3 Zrotation Xrotation Yrotation
		JOINT LeftKnee
		{
			OFFSET	-1.605680	-15.592300	1.005510
			CHANNELS 3 Zrotation Xrotation Yrotation
			JOINT LeftAnkle
			{
				OFFSET	-0.632401	-16.421000	-1.413730
				CHANNELS 3 Zrotation Xrotation Yrotation
				End Site
				{
					OFFSET	0.008423	-2.933000	-1.776750
				}
			}
		}
	}
	JOINT RightHip
	{
		OFFSET	-4.740440	-3.195970	-0.322709
		CHANNELS 3 Zrotation Xrotation Yrotation
		JOINT RightKnee
		{
			OFFSET	1.605680	-15.592300	1.005510
			CHANNELS 3 Zrotation Xrotation Yrotation
			JOINT RightAnkle
			{
				OFFSET	0.632401	-16.421000	-1.413730
				CHANNELS 3 Zrotation Xrotation Yrotation
				End Site
				{
					OFFSET	-0.008423	-2.933000	-1.776750
				}
			}
		}
	}
	JOINT Chest
	{
		OFFSET	0.000000	3.468200	0.078401
		CHANNELS 3 Zrotation Xrotation Yrotation
		JOINT LeftCollar
		{
			OFFSET	3.857650	15.070700	-0.011583
			CHANNELS 3 Zrotation Xrotation Yrotation
			JOINT LeftShoulder
			{
				OFFSET	3.979720	-1.940530	-0.165223
				CHANNELS 3 Zrotation Xrotation Yrotation
				JOINT LeftElbow
				{
					OFFSET	0.615844	-10.986600	-0.673886
					CHANNELS 3 Zrotation Xrotation Yrotation
					JOINT LeftWrist
					{
						OFFSET	0.826843	-10.854500	1.034220
						CHANNELS 3 Zrotation Xrotation Yrotation
						End Site
						{
							OFFSET	-1.679080	-8.456540	0.936217
						}
					}
				}
			}
		}
		JOINT RightCollar
		{
			OFFSET	-3.857650	15.070700	-0.011583
			CHANNELS 3 Zrotation Xrotation Yrotation
			JOINT RightShoulder
			{
				OFFSET	-3.979720	-1.940530	-0.165223
				CHANNELS 3 Zrotation Xrotation Yrotation
				JOINT RightElbow
				{
					OFFSET	-0.615845	-10.986600	-0.673886
					CHANNELS 3 Zrotation Xrotation Yrotation
					JOINT RightWrist
					{
						OFFSET	-0.826843	-10.854500	1.034220
						CHANNELS 3 Zrotation Xrotation Yrotation
						End Site
						{
							OFFSET	1.679080	-8.456540	0.936217
						}
					}
				}
			}
		}
		JOINT Neck
		{
			OFFSET	0.000000	15.101400	0.055730
			CHANNELS 3 Zrotation Xrotation Yrotation
			JOINT Head
			{
				OFFSET	0.000000	4.185120	1.488260
				CHANNELS 3 Zrotation Xrotation Yrotation
				End Site
				{
					OFFSET	0.000000	7.773420	-0.106016
				}
			}
		}
	}
}
MOTION
Frames:     19
Frame Time: 0.016667
1.623373	37.421852	-8.778290	6.530830	-3.384734	13.568213	-2.280722	15.287146	2.156842	1.736508	1.701363	13.157862	-5.491677	-10.765882	5.005900	-15.108329	-14.502247	-5.798603	1.259620	11.479953	-0.554647	6.388146	9.108732	2.223603	-5.946055	-0.503690	-5.854090	-1.492015	1.861964	-0.575224	8.202806	4.219234	1.616784	-5.596630	-17.265530	-8.846095	15.118257	8.122037	-17.042278	-0.777664	1.228642	3.938469	-1.902730	2.451288	-0.570870	-2.782156	-6.645355	13.165534	-20.804808	0.031530	16.123507	-5.469311	-19.623463	-9.850374	1.212553	3.539402	1.246661	
1.625773	37.422680	-8.763340	6.551786	-3.388566	13.318860	-2.374401	15.267390	2.356919	1.718973	1.757649	13.210402	-5.481766	-10.800082	5.008050	-15.067621	-14.573813	-5.599864	1.250563	11.495974	-0.501181	6.388146	9.108732	2.223603	-5.938239	-0.514995	-5.684120	-1.489184	1.927283	-0.522787	8.056035	4.251370	1.578602	-5.374647	-16.721703	-8.656815	14.846947	8.982660	-17.506514	-0.786658	1.206499	3.936960	-1.920626	2.468298	-0.575870	-2.775456	-6.641934	13.174874	-20.809450	0.043463	16.151741	-5.469132	-19.471577	-9.866176	1.239249	3.550414	1.298325	
1.621702	37.423199	-8.732259	6.497224	-3.402135	13.188795	-2.369857	15.208244	2.305099	1.719223	1.844632	13.357839	-5.480574	-10.813337	5.036300	-14.920053	-14.568253	-5.637700	1.162884	11.503294	-0.315494	6.385325	9.062105	2.226784	-5.823664	-0.514608	-5.754645	-1.443643	2.148515	-0.404259	7.550003	4.444439	1.522436	-4.723344	-15.267669	-8.170059	14.549166	8.504452	-17.845459	-0.797599	1.144818	3.885105	-1.974594	2.508859	-0.621778	-2.743467	-6.636097	13.185647	-20.856104	-0.063035	16.155630	-5.482327	-18.965696	-9.937921	1.336936	3.512873	1.434081	
1.624657	37.420528	-8.716712	6.438436	-3.416225	13.059684	-2.349343	15.184704	2.370718	1.707760	1.903576	13.354625	-5.472879	-10.841827	5.094376	-14.812198	-14.589247	-5.554243	1.139870	11.503947	-0.267786	6.384604	9.050087	2.227578	-5.748451	-0.523356	-5.677764	-1.426141	2.214642	-0.378233	7.389332	4.517360	1.512827	-4.538179	-14.829048	-8.036555	14.246997	9.274734	-18.330105	-0.801324	1.125239	3.866533	-1.986015	2.523810	-0.665181	-2.731536	-6.635563	13.197147	-20.878380	-0.102319	16.119642	-5.478135	-18.814245	-9.963860	1.343699	3.508736	1.468171	
1.620245	37.424465	-8.701015	6.456503	-3.417077	12.925224	-2.418838	15.137057	2.349888	1.699454	1.992732	13.482428	-5.463624	-10.874403	5.122541	-14.766099	-14.599060	-5.494298	1.096737	11.484535	-0.181452	6.384514	9.048469	2.227642	-5.731364	-0.524810	-5.655437	-1.253053	2.401570	-0.387364	6.806291	4.806720	1.561020	-4.057906	-13.690501	-7.701233	14.001537	8.880661	-18.628012	-0.783699	1.084845	3.753466	-2.083804	2.523131	-0.705689	-2.751063	-6.778537	13.206880	-20.869198	-0.115712	15.992999	-5.451777	-18.440453	-10.024941	1.338632	3.566972	1.490240	
1.620237	37.424488	-8.687676	6.432501	-3.425268	12.790606	-2.440083	15.103676	2.379455	1.705301	2.028649	13.591878	-5.469346	-10.865858	5.118200	-14.688488	-14.617336	-5.409803	1.068954	11.470883	-0.126050	6.384514	9.048469	2.227642	-5.704953	-0.535439	-5.522645	-1.198474	2.484187	-0.404502	6.630060	4.904206	1.584682	-3.912097	-13.375578	-7.627735	13.698494	9.522321	-18.954990	-0.767471	1.076278	3.685191	-2.133628	2.537816	-0.726186	-2.731415	-6.862163	13.208706	-20.884995	-0.154080	15.961042	-5.441435	-18.331812	-10.064483	1.340509	3.565485	1.481916	
1.619443	37.424751	-8.678779	6.417496	-3.431378	12.669735	-2.466139	15.074333	2.409497	1.712323	2.057973	13.687845	-5.475664	-10.855019	5.113613	-14.626697	-14.634413	-5.329640	1.045619	11.449778	-0.094394	6.382946	9.059833	2.240553	-5.659143	-0.538238	-5.500529	-1.108965	2.666974	-0.378383	6.170739	5.247626	1.668059	-3.562232	-12.600565	-7.438137	13.493623	9.217955	-19.123316	-0.728261	1.072147	3.604448	-2.396145	2.427480	-0.847473	-2.609758	-7.064196	13.295658	-20.899208	-0.238113	15.863658	-5.499309	-18.087484	-10.150848	1.367865	3.582612	1.562323	
1.618137	37.423496	-8.681563	6.395200	-3.436280	12.626484	-2.458948	15.060603	2.411041	1.715459	2.070907	13.730447	-5.479036	-10.849235	5.111168	-14.580665	-14.636272	-5.321007	1.025464	11.413391	-0.075220	6.381799	9.088870	2.256088	-5.606941	-0.532930	-5.565374	-1.094284	2.721706	-0.284467	5.999867	5.362790	1.684973	-3.444790	-12.396450	-7.381259	13.224999	9.728835	-19.326902	-0.740191	1.054411	3.650288	-2.533848	2.327320	-0.896850	-2.516032	-7.072484	13.352537	-20.924789	-0.276779	15.823038	-5.529901	-18.028818	-10.112143	1.390968	3.577271	1.547948	
1.616521	37.424118	-8.684628	6.401776	-3.437540	12.552560	-2.487618	15.052757	2.463281	1.706929	2.101735	13.720763	-5.468115	-10.877178	5.144527	-14.561731	-14.648159	-5.261980	1.014662	11.374546	-0.067908	6.382345	9.124284	2.263310	-5.604735	-0.534854	-5.519396	-0.932714	2.877470	-0.264125	5.639297	5.717842	1.684349	-3.255040	-11.902862	-7.227007	13.028358	9.474447	-19.429789	-0.710802	1.052533	3.581210	-2.714457	2.230455	-0.885979	-2.474637	-7.316214	13.361627	-20.943632	-0.348052	15.680870	-5.593565	-17.874901	-10.176289	1.433335	3.566298	1.468030	
1.616888	37.421711	-8.697333	6.381504	-3.442221	12.509293	-2.482328	15.038989	2.465555	1.705470	2.125274	13.745345	-5.463076	-10.889911	5.161255	-14.529418	-14.657953	-5.222065	1.010442	11.317778	-0.068661	6.385540	9.180502	2.260826	-5.583573	-0.538777	-5.477527	-0.880302	2.926910	-0.250621	5.535884	5.814599	1.669987	-3.193725	-11.772780	-7.183659	12.899211	9.524179	-19.504564	-0.691717	1.063653	3.557848	-2.870040	2.109741	-0.930881	-2.380446	-7.326377	13.423662	-20.941427	-0.356783	15.642125	-5.616044	-17.835661	-10.233324	1.458713	3.632599	1.482225	
1.616481	37.419186	-8.712056	6.359212	-3.447214	12.468312	-2.470420	15.036628	2.504171	1.707208	2.132623	13.701569	-5.457406	-10.900294	5.207463	-14.491563	-14.664339	-5.195552	0.999684	11.249496	-0.056232	6.389445	9.245066	2.256582	-5.560396	-0.542562	-5.438065	-0.758748	3.041787	-0.216587	5.278232	6.088738	1.633789	-3.067815	-11.524248	-7.091389	12.560687	9.696863	-19.704672	-0.664676	1.067596	3.497745	-3.036172	1.988765	-0.875235	-2.338499	-7.584254	13.392283	-21.005276	-0.404461	15.568638	-5.662426	-17.712845	-10.288711	1.521127	3.645377	1.362538	
1.614634	37.417820	-8.725202	6.348500	-3.449617	12.448628	-2.460604	15.020189	2.526955	1.707302	2.146486	13.681840	-5.457018	-10.899243	5.222942	-14.467058	-14.663069	-5.199079	0.984016	11.187773	-0.032860	6.392802	9.300436	2.252934	-5.562740	-0.548703	-5.369904	-0.705509	3.083557	-0.255169	5.202615	6.162726	1.623421	-3.026737	-11.480646	-7.069481	12.455648	9.755462	-19.777540	-0.650739	1.073742	3.448469	-3.143389	1.834377	-0.877218	-2.279572	-7.548921	13.388602	-21.006340	-0.429359	15.609803	-5.675925	-17.665888	-10.342249	1.542269	3.613069	1.356105	
1.616194	37.416035	-8.737945	6.335775	-3.452433	12.425281	-2.443928	14.980987	2.557863	1.713121	2.177062	13.605476	-5.455305	-10.894842	5.289500	-14.447762	-14.668333	-5.177817	0.980618	11.136920	-0.033185	6.374197	9.352830	2.246594	-5.550681	-0.542043	-5.288218	-0.660686	3.112996	-0.303185	5.085262	6.369509	1.766803	-2.953049	-11.415230	-7.182187	12.216684	9.868187	-19.946394	-0.614858	1.033954	3.401519	-3.256002	1.717228	-0.858138	-2.320060	-7.731589	13.361362	-21.032732	-0.508433	15.717314	-5.702780	-17.638447	-10.407105	1.567554	3.609279	1.308063	
1.613637	37.415344	-8.750322	6.335775	-3.452433	12.425281	-2.426093	14.913418	2.567086	1.708194	2.239227	13.549151	-5.454556	-10.891156	5.330907	-14.438616	-14.668036	-5.172515	0.970076	11.090343	-0.037871	6.366059	9.399193	2.242338	-5.539840	-0.526331	-5.255876	-0.614911	3.073660	-0.264268	5.019664	6.454303	1.764183	-2.927677	-11.438835	-7.248577	12.157890	9.904137	-19.938520	-0.602256	0.996962	3.377164	-3.343432	1.666749	-0.824682	-2.310856	-7.776110	13.316205	-21.034510	-0.540757	15.760710	-5.722862	-17.651800	-10.442509	1.569034	3.609894	1.305779	
1.609745	37.415833	-8.747037	6.330976	-3.454194	12.396028	-2.400358	14.808783	2.605897	1.685727	2.362919	13.437227	-5.441011	-10.918454	5.423100	-14.400514	-14.673746	-5.128457	0.946909	11.084173	-0.046566	6.337795	9.404736	2.238939	-5.523781	-0.501106	-5.125874	-0.591841	3.053213	-0.344219	4.994708	6.602157	1.917653	-2.914729	-11.594065	-7.264766	12.132842	9.880543	-20.037188	-0.587920	0.886514	3.345355	-3.527833	1.529970	-0.842597	-2.276431	-7.884830	13.248376	-21.069555	-0.652476	15.894018	-5.715281	-17.745667	-10.435600	1.516094	3.673374	1.203298	
1.602877	37.416409	-8.744908	6.330122	-3.454370	12.394477	-2.366425	14.686853	2.616185	1.637444	2.524155	13.400593	-5.425754	-10.962575	5.435962	-14.369214	-14.674999	-5.100468	0.921471	11.081516	-0.050669	6.335991	9.404257	2.219309	-5.531590	-0.504241	-5.092662	-0.534940	3.045006	-0.319587	4.953698	6.622634	1.928007	-2.905055	-11.675902	-7.267379	12.150899	9.872751	-20.038643	-0.577129	0.860228	3.342148	-3.581965	1.482269	-0.868783	-2.269216	-7.915091	13.278497	-21.078382	-0.688914	15.900665	-5.658640	-17.831415	-10.337115	1.452310	3.751504	1.087472	
1.595529	37.417038	-8.742949	6.330122	-3.454370	12.394477	-2.341160	14.592629	2.626609	1.553899	2.734259	13.312460	-5.378320	-11.095845	5.496403	-14.339100	-14.676620	-5.070065	0.896738	11.079997	-0.071434	6.332509	9.404716	2.211699	-5.553393	-0.514336	-5.006390	-0.494892	3.029557	-0.370579	4.985394	6.685173	2.088636	-2.871116	-12.094794	-7.264583	12.186137	9.852167	-19.914850	-0.550793	0.797788	3.325636	-3.667088	1.350114	-0.819327	-2.286350	-8.021163	13.192203	-21.152578	-0.756256	15.928844	-5.601179	-17.927488	-10.306992	1.336910	3.835939	1.048894	
1.594892	37.417099	-8.742759	6.330122	-3.454370	12.394477	-2.324979	14.533445	2.631082	1.519724	2.829902	13.294256	-5.364443	-11.136601	5.501809	-14.336640	-14.676532	-5.068642	0.894531	11.079688	-0.072241	6.332509	9.404716	2.211699	-5.561644	-0.518959	-4.970817	-0.468297	3.002600	-0.365246	4.991571	6.692135	2.104192	-2.867485	-12.250811	-7.269375	12.225309	9.854446	-19.867210	-0.535016	0.756163	3.330420	-3.686265	1.328662	-0.808081	-2.319073	-8.053987	13.136915	-21.142284	-0.752611	15.968380	-5.572991	-17.971909	-10.276913	1.284146	3.874477	1.017655	
1.583181	37.416721	-8.753484	6.330122	-3.454370	12.394477	-2.278885	14.363838	2.645269	1.410458	3.123681	13.236885	-5.317079	-11.275600	5.520420	-14.298559	-14.681570	-5.015504	0.863511	11.035481	-0.118162	6.335269	9.449986	2.208688	-5.514973	-0.493316	-4.873211	-0.489056	2.938177	-0.417917	5.097310	6.701175	2.191972	-2.843885	-12.936674	-7.289260	12.282102	9.890429	-19.700558	-0.518203	0.580664	3.338033	-3.858862	1.235611	-0.814870	-2.314221	-8.113928	13.124681	-21.155914	-0.747279	16.001068	-5.539143	-18.214205	-10.219034	1.189286	3.991960	1.001031	
